<?xml version="1.0"?>
<svg xmlns="http://www.w3.org/2000/svg" height="512px" viewBox="0 0 512 512" width="512px"><path d="m411.429688 292.570312c0 10.101563-8.1875 18.285157-18.285157 18.285157-10.101562 0-18.289062-8.183594-18.289062-18.285157 0-10.097656 8.1875-18.285156 18.289062-18.285156 10.097657 0 18.285157 8.1875 18.285157 18.285156zm0 0" fill="#FFFFFF"/><path d="m310.855469 292.570312c0 10.101563-8.183594 18.285157-18.285157 18.285157-10.097656 0-18.285156-8.183594-18.285156-18.285157 0-10.097656 8.1875-18.285156 18.285156-18.285156 10.101563 0 18.285157 8.1875 18.285157 18.285156zm0 0" fill="#FFFFFF"/><path d="m210.285156 292.570312c0 10.101563-8.1875 18.285157-18.285156 18.285157s-18.285156-8.183594-18.285156-18.285157c0-10.097656 8.1875-18.285156 18.285156-18.285156s18.285156 8.1875 18.285156 18.285156zm0 0" fill="#FFFFFF"/><path d="m54.855469 438.855469v-356.570313c0-15.121094 12.308593-27.429687 27.429687-27.429687h356.570313v-45.710938c0-5.046875-4.09375-9.144531-9.140625-9.144531h-420.570313c-5.039062 0-9.144531 4.097656-9.144531 9.144531v420.570313c0 5.046875 4.105469 9.140625 9.144531 9.140625zm0 0" fill="#FFFFFF"/><path d="m502.855469 73.144531h-420.570313c-5.039062 0-9.140625 4.09375-9.140625 9.140625v420.570313c0 5.046875 4.101563 9.144531 9.140625 9.144531h420.570313c5.046875 0 9.144531-4.097656 9.144531-9.144531v-420.570313c0-5.046875-4.097656-9.140625-9.144531-9.140625zm-310.855469 256c-20.167969 0-36.570312-16.402343-36.570312-36.574219 0-20.167968 16.402343-36.570312 36.570312-36.570312s36.570312 16.402344 36.570312 36.570312c0 20.171876-16.410156 36.574219-36.570312 36.574219zm100.570312 0c-20.167968 0-36.570312-16.402343-36.570312-36.574219 0-20.167968 16.402344-36.570312 36.570312-36.570312 20.171876 0 36.574219 16.402344 36.574219 36.570312 0 20.171876-16.414062 36.574219-36.574219 36.574219zm100.574219 0c-20.171875 0-36.574219-16.402343-36.574219-36.574219 0-20.167968 16.402344-36.570312 36.574219-36.570312 20.167969 0 36.570313 16.402344 36.570313 36.570312 0 20.171876-16.410156 36.574219-36.570313 36.574219zm0 0" fill="#FFFFFF"/></svg>
